# xmcd
# Copyright (C) 1995-1998 Ti Kan
#
# Track frame offsets:
#       150
#       2814
#       21790
#       37244
#       53630
#       69987
#       84679
#       102577
#       120108
#       140002
#       158277
#       174535
#       193569
#
# Disc length: 2677 seconds
#
# Revision: 0
# Processed by: cddbd v1.5.1PL0 Copyright (c) Steve Scherf et al.
# Submitted via: CD-Transfer v1.0
#
DISCID=a20a730d
DTITLE=Sergio - The Beginning
DYEAR=2005
DGENRE=
TTITLE0=Intro
TTITLE1=I'm Sorry
TTITLE2=I Need It
TTITLE3=Can Not Believe It
TTITLE4=Pretty Lady
TTITLE5=Black Friday
TTITLE6=Let Her Go
TTITLE7=Back To The Roots
TTITLE8=Bring Back
TTITLE9=I Wanna Know
TTITLE10=That's It
TTITLE11=No Need To Talk
TTITLE12=Oh Jauwe
EXTD=
EXTT0=
EXTT1=
EXTT2=
EXTT3=
EXTT4=
EXTT5=
EXTT6=
EXTT7=
EXTT8=
EXTT9=
EXTT10=
EXTT11=
EXTT12=
PLAYORDER=
